P2
4 2
255
0 32 64 96
128 160 192 224